<svg xmlns="http://www.w3.org/2000/svg" viewBox="0 0 512 512"><defs><style>.cls-1{fill:#18eab3;}</style></defs><g id="Layer_2" data-name="Layer 2"><g id="Layer_1-2" data-name="Layer 1"><rect width="512" height="512"/><path class="cls-1" d="M301.2,50.48V288.69q0,.57-1.14,1.71l-14.21,14.21v.57h-.57v.57H143.15V364.3h58.56V341.56l.57-.57,15.35-15.35a.5.5,0,0,0,.57-.56h81.86a90.69,90.69,0,0,1,1.14,1.13v121.1a1.64,1.64,0,0,1-.57,1.14L285.28,463.8h-.57v.57H44.79v-.57H43.66v-.57a.51.51,0,0,0-.57-.57V222.74h.57v-.57L59,206.82h.57v-.57H201.71V147.7H143.15v21.6a1.17,1.17,0,0,1-.28.85,1.15,1.15,0,0,0-.29.86H142l-14.78,15.35h-.57v.56H44.79a.49.49,0,0,1-.56-.56h-.57v-.57l-.57-.57V64.69l.57-.57v-.57L59,48.2h.57a2.32,2.32,0,0,1,1.7-.57H300.06v.57h.57v.57h.57v1.71Zm-203.53,58V90.84L63.56,56.73V162.48L72.65,154l21-21,4-4.54v-19.9ZM63.56,215.35V439.92l9.09-8.53,10.24-10.8.56-.57,10.24-9.66,4-4.55V249.46Zm4-162L77.2,63H282.44l9.66-9.66Zm15.35,97.79-1.14,1.13L67.54,166.46H79.48l27.28-26.72-6.25-6.26-7.39,7.39-.57.57L92,142.58h-.57l-1.13,1.14ZM67.54,211.37,77.2,221l5.69,5.68,18.76,18.76H252.31l-2.85-2.84-19.89-19.9L218.2,211.37H67.54Zm46.05,198.42H101.65l-4,4-21,21-9.09,9.1H79.48ZM258,87.43,276.75,68.1H82.89l18.76,19.33Zm-141.56,62-5.69-6.25L87.43,166.46H99.37Zm17,260.39H121.55L87.43,443.9H99.37Zm4-253.57V130.64l-1.13-1.14-6.26-5.68-3.41-4-6.25-6.26-4-4-5.69-5.68-4-4-3.41-3.41v31.84l18.76,18.76,5.69,5.68,9.66,9.67ZM111.88,391.59l21-21,4.54-4.55V289.26l-7.39-7.39-3.41-4-6.25-5.69-4-4L110.74,262l-4-3.41-3.41-3.41v145Zm1.71-299h-6.26L110.74,96Zm-6.26,73.91h11.94l7.39-7.4-6.25-5.68Zm6.26,84.71h-6.26l3.41,3.41ZM141.44,370l-4,4L127.23,384.2l-.57.57-11.94,11.94-7.39,7.39h145l-2.85-2.84-19.89-19.9L218.2,370H141.44Zm11.94,39.8H141.44L107.33,443.9h11.94ZM133.48,92.55H121.55l-6.83,7.39,2.28,2.27,3.41,3.41Zm0,158.62H121.55l-6.83,7.39,2.28,2.27,3.41,3.41Zm8-158.62-17,17,6.25,6.26,22.74-23.31Zm11.94,158.62H141.44l-17,17.05,6.25,6.26Zm-26.15-84.71h6.25l-2.84-2.84-.57-.58Zm46.05,243.33H161.34L127.23,443.9h11.94Zm0-317.24H161.34l-27.29,27.29,6.26,5.68Zm0,158.62H161.34l-27.29,26.72,6.26,6.25ZM147.13,127.23h11.94l34.11-34.68H181.24Zm0,158h11.94l34.11-34.11H181.24Zm46.05,124.51H181.24L147.13,443.9h11.94Zm7.39-317.24-34.11,34.68H179l34.11-34.68Zm12.51,158.62H200.57l-34.11,34.11H179Zm0,158.62H200.57L166.46,443.9H179ZM198.3,127.23l34.11-34.68H220.47l-34.11,34.11Zm34.11,123.94H220.47l-34.11,34.11H198.3Zm0,158.62H220.47L186.36,443.9H198.3ZM218.2,127.23l19.33-19.07,2.27-2.9,2.27-1.73.57-1.16,9.67-9.82H240.37l-34.11,34.11Zm34.11,123.94H240.37l-34.11,34.11H218.2Zm0,158.62H240.37L206.26,443.9H218.2Zm-30.13-202.4,18.76,19.33,5.68,5.12,9.67,9.66v-145l-4.55,5.11-5.12,4.55-.57.57L243.78,109l-2.84,2.84-9.1,9.09-9.66,9.67Zm0,126.78V366l18.76,19.33,5.68,5.12,9.67,9.66V368.28l-.57-.56-.57-.57L250,362Zm4-48.89h11.94l27.29-26.72-6.25-6.26Zm0,44.91,9.67,9.67,5.69,5.68,17.62,17.63,17.62-17.63,5.69-5.68,9.66-9.67Zm0,113.71h11.94l27.29-27.29-6.25-5.69Zm43.21-181.36-.57-.57-22.74,23.31H258l17.06-17.06Zm0,158.62-.57-.57L246.05,443.9H258l17.06-17.06Zm26.72-154.07V56.73L291,61.85l-4.55,4.55-1.14,1.13-4.55,4.55-9.66,9.67L262,90.84V247.19L280.73,266l5.69,5.68,9.66,9.67V267.09Zm0,158.62V334.17L291,339.29l-4.55,4.55-.57.57-.57.56-4.55,4.55-9.66,9.67-9.1,9.09v37.53l18.76,18.76,5.69,5.68,9.66,9.67V425.71ZM284.71,277.89,279,272.2,266,285.28h11.94Zm0,158.62L279,430.82,266,443.9h11.94Zm1.71-151.23h5.68l-2.84-2.84-.57-.57-3.41,3.41Zm0,158.62h5.68l-2.84-2.84-.57-.57-3.41,3.41Z"/><path class="cls-1" d="M468.91,49.91v398a.5.5,0,0,0-.57.57l-13.07,14.78a3.3,3.3,0,0,1-2.28,1.14H371.12a.5.5,0,0,1-.56-.57H370a.51.51,0,0,0-.57-.57V147.7h-37a.5.5,0,0,1-.56-.57h-1.14l-.57-.57V146h-.57V64.69a.51.51,0,0,1,.57-.57v-.57L345.54,48.2h.57a1.65,1.65,0,0,1,1.14-.57h120a.5.5,0,0,1,.56.57h.57a.5.5,0,0,0,.57.57v1.14ZM350.09,56.73v66l18.19-17.62,1.71-1.71v-.57l7.39-7.39,5.68-5.68L372.26,78.9Zm4-3.41L363.73,63l5.69,5.12,18.76,19.33H425.7L444.46,68.1,449,63.55l1.14-.57,9.66-9.66ZM366,126.66l34.11-34.11H388.18l-4,4-8,8.53-2.27,1.7-12.51,12.51-7.39,7.39Zm19.9,0,18.76-18.76,5.68-5.69L420,92.55H408.08L374,126.66ZM399.55,121l-9.66,9.67V439.92l8.52-8.53,10.81-10.8.56-.57,9.67-9.66,4.55-4.55V96.53l-5.12,5.11-4.55,4.55-5.68,5.69ZM393.86,443.9H405.8l26.72-27.29-5.68-5.69L421.72,416l-7.39,6.82-.57,1.14-1.13,1.14-1.14.57Zm19.9,0H425.7l17.06-17.06-6.26-6.25Zm25-362.15-9.1,9.09v315l18.76,18.76,5.69,5.68,9.66,9.67V56.73l-5.11,5.12-4.55,4.55L453,67.53l-4.55,4.55ZM433.09,443.9h26.72L457,441.06l-10.23-10.24Z"/></g></g></svg>